HIERARCHY
ROOT Hips
{
	OFFSET 0.000000 89.005402 0.000000
	CHANNELS 6 Xposition Yposition Zposition Xrotation Yrotation Zrotation
	JOINT Spine
	{
		OFFSET 0.116900 10.681000 0.373400
		CHANNELS 3 Xrotation Yrotation Zrotation
		JOINT Spine1
		{
			OFFSET 0.000000 13.840401 0.053500
			CHANNELS 3 Xrotation Yrotation Zrotation
			JOINT Spine2
			{
				OFFSET 0.000000 14.712700 -0.366200
				CHANNELS 3 Xrotation Yrotation Zrotation
				JOINT Neck
				{
					OFFSET 0.000000 35.415497 -3.314200
					CHANNELS 3 Xrotation Yrotation Zrotation
					JOINT Head
					{
						OFFSET 0.000000 16.899200 1.218300
						CHANNELS 3 Xrotation Yrotation Zrotation
						JOINT HeadTop_End
						{
							OFFSET 0.000000 22.206207 2.192500
							CHANNELS 3 Xrotation Yrotation Zrotation
							End Site
							{
								OFFSET 0.000000 22.314178 0.000000
							}
						}
					}
				}
				JOINT LeftShoulder
				{
					OFFSET 12.896400 26.716293 -4.548400
					CHANNELS 3 Xrotation Yrotation Zrotation
					JOINT LeftArm
					{
						OFFSET 19.027000 -4.857010 -1.718400
						CHANNELS 3 Xrotation Yrotation Zrotation
						JOINT LeftForeArm
						{
							OFFSET 24.179897 0.000000 0.000000
							CHANNELS 3 Xrotation Yrotation Zrotation
							JOINT LeftHand
							{
								OFFSET 27.156403 0.000000 0.000000
								CHANNELS 3 Xrotation Yrotation Zrotation
								JOINT LeftHandIndex1
								{
									OFFSET 16.441200 0.000000 0.000000
									CHANNELS 3 Xrotation Yrotation Zrotation
									JOINT LeftHandIndex2
									{
										OFFSET 4.821899 0.000000 0.000000
										CHANNELS 3 Xrotation Yrotation Zrotation
										JOINT LeftHandIndex3
										{
											OFFSET 6.386497 0.000000 0.000000
											CHANNELS 3 Xrotation Yrotation Zrotation
											JOINT LeftHandIndex4
											{
												OFFSET 5.188988 0.000000 0.000000
												CHANNELS 3 Xrotation Yrotation Zrotation
												End Site
												{
													OFFSET -0.178703 5.185913 0.000177
												}
											}
										}
									}
								}
								JOINT LeftHandThumb1
								{
									OFFSET 6.534897 -5.032593 5.900300
									CHANNELS 3 Xrotation Yrotation Zrotation
									JOINT LeftHandThumb2
									{
										OFFSET 3.818176 -2.204422 2.204423
										CHANNELS 3 Xrotation Yrotation Zrotation
										JOINT LeftHandThumb3
										{
											OFFSET 3.252098 -1.877594 1.877601
											CHANNELS 3 Xrotation Yrotation Zrotation
											JOINT LeftHandThumb4
											{
												OFFSET 5.251778 -3.032120 3.032117
												CHANNELS 3 Xrotation Yrotation Zrotation
												End Site
												{
													OFFSET 0.000023 6.780014 0.000000
												}
											}
										}
									}
								}
							}
						}
					}
				}
				JOINT RightShoulder
				{
					OFFSET -12.896300 26.716293 -4.548400
					CHANNELS 3 Xrotation Yrotation Zrotation
					JOINT RightArm
					{
						OFFSET -19.027000 -4.857010 -1.718400
						CHANNELS 3 Xrotation Yrotation Zrotation
						JOINT RightForeArm
						{
							OFFSET -24.179897 0.000000 0.000000
							CHANNELS 3 Xrotation Yrotation Zrotation
							JOINT RightHand
							{
								OFFSET -27.156403 0.000000 0.000000
								CHANNELS 3 Xrotation Yrotation Zrotation
								JOINT RightHandThumb1
								{
									OFFSET -6.591202 -4.852203 5.988100
									CHANNELS 3 Xrotation Yrotation Zrotation
									JOINT RightHandThumb2
									{
										OFFSET -3.818176 -2.204422 2.204423
										CHANNELS 3 Xrotation Yrotation Zrotation
										JOINT RightHandThumb3
										{
											OFFSET -3.252098 -1.877594 1.877601
											CHANNELS 3 Xrotation Yrotation Zrotation
											JOINT RightHandThumb4
											{
												OFFSET -5.251778 -3.032120 3.032117
												CHANNELS 3 Xrotation Yrotation Zrotation
												End Site
												{
													OFFSET -0.000023 6.780014 0.000000
												}
											}
										}
									}
								}
								JOINT RightHandIndex1
								{
									OFFSET -16.029404 0.000000 0.000000
									CHANNELS 3 Xrotation Yrotation Zrotation
									JOINT RightHandIndex2
									{
										OFFSET -5.213303 0.000000 0.000000
										CHANNELS 3 Xrotation Yrotation Zrotation
										JOINT RightHandIndex3
										{
											OFFSET -6.386528 0.000000 0.000000
											CHANNELS 3 Xrotation Yrotation Zrotation
											JOINT RightHandIndex4
											{
												OFFSET -5.189026 0.000000 0.000000
												CHANNELS 3 Xrotation Yrotation Zrotation
												End Site
												{
													OFFSET 0.236702 5.183624 0.001972
												}
											}
										}
									}
								}
							}
						}
					}
				}
			}
		}
	}
	JOINT LeftUpLeg
	{
		OFFSET 14.073000 -7.904099 -1.463000
		CHANNELS 3 Xrotation Yrotation Zrotation
		JOINT LeftLeg
		{
			OFFSET -0.109806 -34.073280 4.093200
			CHANNELS 3 Xrotation Yrotation Zrotation
			JOINT LeftFoot
			{
				OFFSET 0.109806 -29.899420 -6.319000
				CHANNELS 3 Xrotation Yrotation Zrotation
				JOINT LeftToeBase
				{
					OFFSET 1.551100 -14.988700 20.535801
					CHANNELS 3 Xrotation Yrotation Zrotation
					JOINT LeftToe_End
					{
						OFFSET 0.221200 0.570800 13.248301
						CHANNELS 3 Xrotation Yrotation Zrotation
						End Site
						{
							OFFSET 0.000000 13.262435 0.000000
						}
					}
				}
			}
		}
	}
	JOINT RightUpLeg
	{
		OFFSET -13.839300 -7.904099 -1.463000
		CHANNELS 3 Xrotation Yrotation Zrotation
		JOINT RightLeg
		{
			OFFSET 0.109694 -34.073219 4.093300
			CHANNELS 3 Xrotation Yrotation Zrotation
			JOINT RightFoot
			{
				OFFSET -0.109694 -29.899384 -6.319200
				CHANNELS 3 Xrotation Yrotation Zrotation
				JOINT RightToeBase
				{
					OFFSET -1.551100 -14.988700 20.535801
					CHANNELS 3 Xrotation Yrotation Zrotation
					JOINT RightToe_End
					{
						OFFSET -0.221200 0.570900 13.248299
						CHANNELS 3 Xrotation Yrotation Zrotation
						End Site
						{
							OFFSET 0.000000 13.262440 0.000000
						}
					}
				}
			}
		}
	}
}
MOTION
Frames: 8
Frame Time: 0.033333
9.338547 58.719131 5.896927 -21.517148 21.457456 13.091459 22.504324 -0.068864 -3.442952 10.318831 0.235246 -1.230042 10.319136 0.249248 -1.225381 15.376069 -0.444227 2.138818 -13.679941 -2.174927 0.850471 0.000002 0.000000 -0.000001 2.062024 -14.898820 4.835684 12.633294 -14.351786 -62.528927 0.000551 -95.719869 0.000569 3.003876 3.768822 2.761661 1.535580 4.339353 -38.960126 8.787137 6.613194 -106.116585 2.456658 5.275370 -49.916969 -0.000002 -0.000000 0.000001 -11.500398 15.913912 17.303039 3.939045 7.948706 0.746810 -1.504464 -8.725035 -1.694634 -0.000000 0.000002 0.000000 2.945077 21.369792 -5.025639 -19.458075 41.701092 61.015774 0.000010 112.895090 -0.000003 5.893108 1.518051 -34.833108 -14.409583 -17.733944 -15.482355 -1.928154 -0.883110 -1.758204 -13.155095 -3.350082 4.254807 0.000000 0.000002 -0.000001 1.376542 -4.166777 34.443035 7.347205 -6.936821 93.299899 3.560725 -6.070068 60.761472 -0.000001 -0.000002 -0.000000 -48.394093 -4.082019 15.595552 88.150681 2.245857 0.124004 -26.520754 14.045003 -12.053780 -1.085047 0.000006 -0.000002 0.000001 0.000002 -0.000001 -63.388868 12.944673 -28.142934 92.941458 4.452312 3.940458 -0.247787 -1.041688 12.092994 -4.881445 -0.000000 0.000007 0.000000 -0.000000 0.000000 
9.627993 58.630737 5.494902 -23.000242 20.687354 13.816833 23.623674 -0.157979 -3.098290 10.718630 0.127366 -1.215421 10.718962 0.133630 -1.212157 18.470490 -0.472516 2.352254 -6.213609 -2.095249 0.605006 0.000001 0.000002 -0.000000 2.083305 -14.116222 6.123650 14.361555 -17.516618 -60.334257 0.001131 -94.145559 0.001153 0.251147 1.570321 5.683126 1.535582 4.339353 -38.960130 8.787135 6.613189 -106.116592 2.456659 5.275371 -49.916966 -0.000005 -0.000001 -0.000000 -11.500392 15.913910 17.303039 3.939042 7.948709 0.746809 -1.504463 -8.725033 -1.694636 0.000000 0.000001 0.000000 2.784832 21.583311 -3.871377 -17.072013 44.817161 60.297299 -0.000056 106.180065 0.000045 9.539493 2.197168 -35.586973 -14.409580 -17.733946 -15.482357 -1.928153 -0.883109 -1.758204 -13.155095 -3.350081 4.254801 -0.000003 0.000001 -0.000005 1.376543 -4.166780 34.443039 7.347204 -6.936819 93.299899 3.560724 -6.070069 60.761479 -0.000001 -0.000001 -0.000001 -46.766111 -3.944318 14.830998 88.389847 2.496159 0.012069 -26.698240 14.703039 -11.917823 -0.773749 -0.000003 0.000005 -0.000001 -0.000002 -0.000000 -60.297559 11.567381 -28.611983 93.718521 3.071635 3.466086 -6.869536 -1.622940 11.482723 -7.361831 -0.000003 0.000001 0.000000 0.000000 0.000000 
9.751530 58.311081 5.454191 -24.274381 20.342682 14.315843 24.716414 -0.369089 -2.846654 11.080390 0.016785 -1.187921 11.080621 0.012990 -1.185540 21.118206 -0.592510 3.206421 5.365932 -0.900649 -1.036609 -0.000004 -0.000002 0.000000 2.256727 -13.844842 8.387123 16.704459 -21.253027 -57.504961 0.002619 -92.087827 0.002667 -3.706308 -0.537364 6.838289 1.535580 4.339350 -38.960133 8.787137 6.613188 -106.116592 2.456660 5.275370 -49.916962 0.000006 0.000001 0.000001 -11.500396 15.913909 17.303041 3.939047 7.948707 0.746812 -1.504462 -8.725036 -1.694630 -0.000000 -0.000001 0.000002 2.558082 21.330329 -2.658813 -16.902488 44.307502 60.843387 -0.000070 100.442296 0.000058 1.293924 -4.015969 -16.992189 -14.409585 -17.733946 -15.482355 -1.928154 -0.883109 -1.758206 -13.155095 -3.350082 4.254804 -0.000000 0.000001 0.000001 1.376541 -4.166780 34.443035 7.347205 -6.936817 93.299906 3.560725 -6.070062 60.761472 0.000001 -0.000001 -0.000000 -45.611529 -4.520815 14.529028 89.069485 2.298477 -0.294320 -26.865274 15.279487 -12.018346 -0.750634 0.000012 0.000004 -0.000001 0.000001 -0.000000 -56.381033 10.579393 -28.821373 91.143786 2.620365 3.878125 -8.568194 -1.748945 11.140429 -10.622751 -0.000001 -0.000001 0.000000 0.000000 0.000000 
9.763634 58.085136 5.323664 -24.964842 20.357973 14.381657 26.074374 -0.583925 -2.384477 11.571938 -0.104627 -1.095893 11.571817 -0.124323 -1.093269 22.006750 -0.773181 3.908905 14.193855 0.094969 -2.886212 0.000001 -0.000000 -0.000001 2.507760 -13.765322 11.208579 20.231087 -25.112200 -54.265194 -0.004288 -90.801245 -0.004321 -6.989446 -2.486029 7.953220 1.535579 4.339354 -38.960126 8.787138 6.613188 -106.116592 2.456665 5.275371 -49.916969 0.000000 0.000004 0.000003 -11.500396 15.913912 17.303041 3.939045 7.948707 0.746812 -1.504462 -8.725036 -1.694633 -0.000001 -0.000002 0.000001 2.177900 20.579186 -0.736951 -15.225018 43.474533 59.808907 0.000012 101.116600 -0.000021 6.699750 -23.478780 -4.041134 -14.409583 -17.733948 -15.482355 -1.928152 -0.883111 -1.758203 -13.155094 -3.350081 4.254808 -0.000001 -0.000002 -0.000000 1.376542 -4.166780 34.443035 7.347202 -6.936820 93.299899 3.560724 -6.070069 60.761479 0.000001 -0.000000 -0.000000 -45.391081 -5.047453 14.342938 89.498031 2.296590 -0.290793 -26.680546 15.525087 -12.125727 -0.751979 0.000021 0.000007 -0.000000 -0.000004 -0.000001 -52.615843 10.389366 -28.463671 87.871210 2.492249 4.972658 -10.910939 -1.860942 10.335213 -9.145599 -0.000001 0.000000 -0.000000 -0.000000 0.000000 
9.710749 58.019920 5.084389 -24.712830 20.942728 14.065090 26.180578 -0.579348 -1.760700 11.619968 -0.147640 -0.895348 11.619557 -0.177848 -0.892180 21.754958 -0.948938 4.320367 19.272977 0.439317 -4.110316 -0.000000 -0.000000 -0.000000 2.926674 -14.769674 13.426299 26.748344 -29.155916 -48.537175 -0.161599 -89.846296 -0.163297 -11.346934 -3.997907 8.572420 1.535579 4.339350 -38.960133 8.787140 6.613197 -106.116592 2.456665 5.275372 -49.916969 0.000001 -0.000002 -0.000000 -11.500397 15.913910 17.303038 3.939047 7.948704 0.746811 -1.504462 -8.725036 -1.694632 0.000001 0.000001 -0.000001 1.800170 19.863660 1.375086 -5.460345 42.919485 53.657362 0.000003 105.911031 -0.000011 2.571525 -14.850175 -16.560361 -14.409583 -17.733946 -15.482357 -1.928154 -0.883108 -1.758203 -13.155095 -3.350081 4.254811 -0.000000 0.000001 0.000002 1.376544 -4.166779 34.443035 7.347204 -6.936819 93.299899 3.560723 -6.070068 60.761479 0.000002 -0.000001 0.000001 -46.394842 -5.733134 14.096933 89.532005 2.533272 -0.390555 -26.153780 15.300906 -12.110470 -0.908465 0.000002 -0.000002 -0.000000 -0.000002 -0.000001 -52.133304 10.281872 -28.032196 88.165810 1.370062 5.075705 -13.465630 -2.057118 10.475868 -8.487372 -0.000006 -0.000003 -0.000000 0.000000 -0.000000 
9.586050 58.214294 5.031425 -23.635721 21.097409 13.635506 25.403068 -0.717692 -1.520783 11.338492 -0.180838 -0.743639 11.337897 -0.211367 -0.741306 20.927095 -0.950585 4.393546 20.574224 2.181920 -7.211399 -0.000000 0.000000 -0.000001 3.227024 -15.672456 14.414728 36.040565 -32.676735 -39.656720 -0.001846 -88.555452 -0.002008 -16.191209 -6.660755 9.341545 1.535582 4.339349 -38.960133 8.787139 6.613196 -106.116592 2.456656 5.275368 -49.916972 -0.000000 -0.000002 0.000002 -11.500394 15.913909 17.303041 3.939044 7.948706 0.746812 -1.504464 -8.725033 -1.694633 0.000002 0.000000 0.000000 1.661685 18.527576 1.656881 -0.845043 40.999669 51.450148 -0.000001 112.300734 -0.000010 0.763477 -16.716318 -16.493459 -14.409583 -17.733946 -15.482357 -1.928153 -0.883110 -1.758200 -13.155095 -3.350080 4.254804 -0.000000 -0.000002 0.000000 1.376543 -4.166779 34.443035 7.347201 -6.936816 93.299899 3.560724 -6.070066 60.761472 -0.000002 -0.000000 -0.000000 -47.266176 -5.902910 14.265015 89.139706 2.663401 -0.612866 -26.160953 15.140241 -12.106976 -0.769505 0.000001 -0.000001 -0.000000 0.000002 -0.000000 -54.892256 11.414517 -27.328786 87.993211 0.975024 4.895794 -7.704499 -1.633448 11.023420 -9.060620 -0.000004 0.000003 -0.000000 0.000000 -0.000000 
9.475365 58.609322 5.031893 -22.763854 21.213528 13.515515 24.214759 -1.321677 -1.273037 10.894419 -0.408097 -0.690787 10.892360 -0.449278 -0.690979 19.701559 -0.732902 3.843118 20.220488 4.189132 -10.042904 -0.000001 -0.000000 0.000001 3.325799 -16.494342 13.738457 47.486989 -34.593347 -28.084592 -0.001513 -87.070220 -0.001433 -22.605199 -9.943852 9.703955 1.535581 4.339351 -38.960123 8.787136 6.613191 -106.116592 2.456657 5.275364 -49.916969 -0.000003 -0.000001 -0.000001 -11.500397 15.913910 17.303043 3.939043 7.948706 0.746811 -1.504466 -8.725033 -1.694632 0.000000 -0.000002 0.000000 1.869947 17.244307 -0.795473 1.703199 41.943270 50.889188 0.000006 113.878378 -0.000004 -3.148454 -10.963208 -19.589321 -14.409585 -17.733944 -15.482357 -1.928154 -0.883111 -1.758205 -13.155095 -3.350082 4.254804 -0.000001 0.000001 0.000002 1.376542 -4.166778 34.443039 7.347203 -6.936818 93.299899 3.560724 -6.070065 60.761479 0.000001 -0.000001 -0.000000 -47.557176 -5.605953 14.290754 88.391814 2.904409 -0.802258 -26.365263 14.942273 -11.966771 -0.783061 0.000009 0.000005 -0.000000 -0.000003 -0.000001 -56.768042 11.793525 -27.435751 87.473229 1.582166 4.404245 -3.592021 -1.339628 11.852167 -9.316643 0.000004 -0.000003 -0.000001 0.000000 -0.000000 
9.488422 58.947464 4.956402 -22.146796 21.470908 13.524835 22.619290 -1.633788 -1.211976 10.291894 -0.536871 -0.711402 10.288661 -0.582231 -0.713967 18.038929 -0.493521 3.747402 18.310713 6.666617 -13.143149 0.000002 -0.000001 0.000002 3.630321 -17.886886 13.791809 58.981504 -35.250640 -16.153150 -0.000824 -86.279551 -0.000786 -28.285360 -13.584276 10.123145 1.535579 4.339349 -38.960130 8.787134 6.613194 -106.116592 2.456659 5.275370 -49.916966 -0.000001 0.000001 -0.000002 -11.500398 15.913907 17.303039 3.939045 7.948709 0.746810 -1.504461 -8.725033 -1.694633 0.000003 -0.000001 0.000000 1.985143 16.470895 -2.415193 4.209660 43.774693 48.022818 0.000007 113.948005 -0.000011 -1.944795 -7.856045 -22.950665 -14.409582 -17.733946 -15.482359 -1.928155 -0.883108 -1.758203 -13.155096 -3.350081 4.254808 -0.000001 0.000001 -0.000001 1.376542 -4.166779 34.443032 7.347205 -6.936818 93.299899 3.560724 -6.070063 60.761472 -0.000001 0.000001 -0.000001 -47.956278 -4.666474 14.174459 87.920128 3.327063 -0.651307 -26.839543 14.897083 -11.409598 -0.878998 0.000002 -0.000010 -0.000001 -0.000001 -0.000001 -56.886364 12.104232 -28.120558 86.738164 2.714053 4.816000 -3.057893 -1.299712 11.644569 -9.147224 0.000001 -0.000002 0.000001 0.000000 -0.000000 
